<svg id="a" xmlns="http://www.w3.org/2000/svg" viewBox="0 0 576 512"><path d="m575.81,255.44s0,.08,0,.12c-.03,17.97-15.02,32.04-32,32.04h-30.03c-1.09,0-1.97.88-1.96,1.97l.69,158.23c0,2.67-.2,5.33-.49,8,0,.07-.01.13-.01.2v15.86c0,22.17-17.97,40.15-40.15,40.15h-15.85c-1.06,0-2.13,0-3.19-.09-.07,0-.15,0-.22,0-1.36.09-2.73.09-4.09.09h-81.01c-8.01,0-14.98-6.07-15.46-14.07-.23-3.86.99-7.43,3.19-10.2.36-.47.76-.91,1.18-1.33,2.71-2.72,6.46-4.4,10.6-4.4h81.5c.73,0,1.72,0,2.06-.02l2.27-.17c.11,0,.22,0,.33,0l1.89.18c.06,0,.12,0,.18,0h16.63c5.58,0,10.15-4.57,10.15-10.15v-17.51c0-.07,0-.14.01-.21l.17-1.54c.21-1.89.32-3.44.32-4.74l-.7-160.12-.03-7.16c-.05-12.67,10.2-22.97,22.87-22.97h39.16c.58,0,2-.84,2-2.1v-.72c-.21-.21-.46-.44-.76-.7l-.02-.03-.03-.02L290.8,30.6c-.23-.21-.51-.36-.81-.43-.41-.09-.97-.17-1.59-.17-.72,0-1.25.02-1.63.04l-.66.57L30.7,253.26c-.67.76-.7,1.15-.7,2.24,0,1.74.8,2.1,2,2.1h38.13c13.24,0,23.97,10.73,23.97,23.97v77.29l-.1.91v112.08c0,5.58,4.57,10.15,10.15,10.15h15.71c.26-.01.83-.06,1.25-.1l2.1-.17c.1,0,.19,0,.29,0l2.11.14c.93.06,2,.13,2.5.13h55.75c5.58,0,10.15-4.57,10.15-10.15v-87.71c0-34.32,27.82-62.15,62.15-62.15h80.85c5.7,0,10.65,3.18,13.2,7.86,1.15,2.12,1.8,4.56,1.8,7.14,0,4.14-1.68,7.89-4.4,10.6-2.71,2.72-6.46,4.4-10.6,4.4h-80.85c-17.75,0-32.15,14.39-32.15,32.15v87.71c0,22.17-17.97,40.15-40.15,40.15h-55.75c-1.45,0-2.91-.09-4.36-.19-.09,0-.19,0-.28,0-1.15.1-2.31.19-3.46.19h-15.85c-22.17,0-40.15-17.97-40.15-40.15v-111.85c0-.87,0-1.84.09-2.72,0-.05,0-.11,0-.16v-67.56c0-1.08-.88-1.96-1.96-1.96h-30.14c-18,0-32-14-32-32.1,0-8.97,2.98-16.95,9.94-23.94.04-.04.08-.08.13-.12L266.4,8c7-7,15-8,22-8s15,2,21,7l255.4,224.5c7.98,6.98,11.98,14.96,11.01,23.94Z"/></svg>