<?xml version="1.0" encoding="UTF-8"?><svg id="a" xmlns="http://www.w3.org/2000/svg" viewBox="0 0 576 512"><path d="m405.43,256.48c-3.27-.26-6.58-.39-9.92-.39h-17.35c.11-.16.23-.32.33-.48,19.36-.51,35.52-14.17,39.83-32.36.29-.09.59-.18.87-.29,10.09-3.6,17.31-13.24,17.31-24.57v-74.55c0-12.81-9.24-23.47-21.43-25.66C393.26,40.29,344.6,0,288.1,0s-105.12,40.27-126.96,98.14c-12.32,2.08-21.69,12.81-21.69,25.71v74.55c0,11.43,7.35,21.13,17.58,24.66,2.67.92,5.53,1.43,8.52,1.43,3.63,0,7.08-.74,10.22-2.07,1.37-.59,2.67-1.28,3.91-2.08,2.77,7.91,6.14,15.52,10.09,22.75,1.12,2.06,2.28,4.09,3.52,6.07.09.14.17.29.27.44,1.35,2.21,2.77,4.39,4.25,6.51h-17.29c-3.27,0-6.51.12-9.73.37-64.18,4.98-114.87,58.79-114.87,124.22v82.84c0,26.73,21.72,48.47,48.43,48.47h367.3c26.77,0,48.47-21.7,48.47-48.47v-82.84c0-65.37-50.6-119.14-114.68-124.2Zm-231.86-121.63c-1.96,10.24-2.96,20.82-2.96,31.59s1.01,21.03,2.96,31.16v.78c0,2.38-1.04,4.52-2.69,5.99-1.62,1.44-3.83,2.24-6.21,1.99-4.13-.44-7.15-4.12-7.15-8.27v-74c0-4.13,3.02-7.78,7.13-8.23,3.65-.4,6.89,1.66,8.24,4.74.45.99.69,2.08.69,3.23v11.02Zm228.83,62.82c1.02-5.3,1.79-10.69,2.27-16.13.46-4.99.69-10.03.69-15.1,0-10.8-1.01-21.42-2.97-31.69v-10.92c0-1.28.3-2.49.84-3.56,1.37-2.76,4.28-4.61,7.59-4.45,4.32.21,7.63,3.97,7.63,8.29v74.27c0,1.16-.25,2.27-.7,3.27-1.25,2.79-4.06,4.75-7.33,4.75-1.95,0-3.74-.69-5.12-1.85-1.77-1.46-2.9-3.69-2.9-6.17v-.71Zm-11.27,35.54c1.91-4.19,3.63-8.49,5.17-12.88,1.1.71,2.26,1.34,3.47,1.87-1.73,4.48-4.77,8.3-8.64,11.01ZM182.65,104.17c-1.08-.96-2.24-1.82-3.48-2.58,19.71-49.42,61.13-83.53,108.92-83.53s89.16,34.06,108.89,83.41c-1.31.79-2.54,1.68-3.68,2.68-5.75-14.02-13.51-26.95-23.1-38.28-22.13-26.18-51.33-40.6-82.2-40.6s-60.08,14.42-82.23,40.61c-9.58,11.34-17.35,24.26-23.12,38.29Zm316.41,359.35c0,15.16-12.29,27.45-27.45,27.45H104.33c-15.11,0-27.41-12.31-27.41-27.45v-82.84c0-57.11,46.47-103.57,103.57-103.57h26.61s-.09-.1-.12-.14c8.93-.45,16.03-7.82,16.03-16.87,0-3.1-.84-6.01-2.3-8.51-.54-.67-1.08-1.33-1.61-2.01-.43-.55-.86-1.1-1.27-1.65-1.2-1.59-2.35-3.2-3.47-4.86-14.6-21.51-22.73-48.46-22.73-76.62,0-66.25,43.23-120.15,96.38-120.15s96.33,53.9,96.33,120.15c0,1.86-.04,3.73-.1,5.58-.24,6.1-.85,12.13-1.83,18.03-2.67,16.14-8.05,31.42-15.79,44.94-.49.87-.99,1.71-1.51,2.56h-49.67c-3.11-4.51-8.49-7.34-14.49-6.83-7.83.66-14.11,7.17-14.52,15.01-.48,9.18,6.82,16.78,15.9,16.78,5.44,0,10.24-2.73,13.11-6.89h36.31c-1.07,1.22-2.2,2.41-3.35,3.57t-.03.03c-1.15,1.16-2.38,2.35-3.67,3.56-.68.64-1.4,1.26-2.11,1.91-1.57,1.36-3.21,2.72-4.95,4.08-1.52,1.18-3.13,2.34-4.78,3.47t0,0c-2.43,1.65-5.01,3.24-7.74,4.72-1.08.59-2.2,1.17-3.33,1.72-.57.27-1.14.54-1.72.81-.66.3-1.33.6-2.01.89-.67.28-1.37.57-2.05.84-1.04.41-2.09.81-3.16,1.18-4.98,1.72-10.32,3.01-15.99,3.68-4.97.59-8.77,4.71-8.77,9.72v.64c0,5.85,5.1,10.36,10.92,9.72,20.19-2.25,39.61-10.65,55.79-24.25.44-.36.86-.73,1.3-1.12.38-.32.76-.65,1.13-.98l3.08-2.71h35.21c57.11,0,103.55,46.46,103.55,103.57v82.84ZM220.71,251.59c-.54-.67-1.08-1.33-1.61-2.01-.43-.55-.86-1.1-1.27-1.65,1.12,1.07,2.09,2.31,2.88,3.66Z"/></svg>