<?xml version="1.0" encoding="UTF-8"?><svg id="a" xmlns="http://www.w3.org/2000/svg" viewBox="0 0 576 512"><path d="m576,210.42v181.04c0,11.03-8.94,19.96-19.96,19.96h-38.4c-1.38,0-2.5,1.12-2.5,2.5v28.15c0,7.69-5.62,14.44-13.25,15.31-9.05,1.03-16.75-6.06-16.75-14.9v-46.06c0-8.28,6.72-15,15-15h43.37c1.38,0,2.5-1.12,2.5-2.5v-156c0-1.37-1.11-2.47-2.47-2.47h-74.6l5,7.72c14.23,21.95,21.75,47.43,21.75,73.69,0,9.27-.94,18.54-2.8,27.55-3.14,15.24-8.86,29.73-17.01,43.06l-.16.26c-.19.32-.38.63-.59.94l-.03.05-.03.05c-9.27,14.81-21.13,27.53-35.28,37.82l-1.06.76c-23.05,16.44-50.24,25.13-78.65,25.13s-55.6-8.69-78.65-25.13l-.72-.51c-14.29-10.33-26.28-23.14-35.63-38.07h-.01s-.06-.11-.06-.11l-.02-.04c-8.55-13.67-14.51-28.57-17.74-44.28-1.85-9-2.79-18.25-2.79-27.48,0-6.02.4-12.09,1.19-18.04,1-7.5,7.39-13.16,14.88-13.16.54,0,1.08.03,1.62.09,7.63.82,13.39,7.23,13.39,14.92,0,.68-.04,1.36-.14,2.05-.62,4.68-.94,9.44-.94,14.14,0,29.73,12.68,58.26,34.78,78.26.26.23.51.46.76.67,19.34,17.21,44.23,26.69,70.08,26.69s51.18-9.64,70.62-27.16c.12-.1.23-.2.34-.31,22.02-20,34.65-48.48,34.65-78.15s-13.48-60.08-36.98-80.21c-19.12-16.38-43.49-25.4-68.63-25.4s-47.74,8.38-66.52,23.64c-.44.36-.99.56-1.56.56H32.47c-1.36,0-2.47,1.11-2.47,2.47v156c0,1.38,1.12,2.5,2.5,2.5h188.28c4,0,7.77,1.56,10.61,4.4,3.22,3.2,4.79,7.63,4.3,12.25-.78,7.37-7.9,13.35-15.31,13.35H90.55s0,30.65,0,30.65c0,7.69-5.62,14.44-13.25,15.31-9.05,1.03-16.75-6.06-16.75-14.9v-31.06H19.96c-11.03,0-19.96-8.94-19.96-19.96v-181.04c0-11.03,8.94-19.96,19.96-19.96h261.98c.5,0,.99-.15,1.4-.43l.64-.43c22.48-15.27,48.8-23.34,76.09-23.34s53.6,8.07,76.09,23.34l.64.43c.41.28.9.43,1.4.43h117.84c11.03,0,19.96,8.94,19.96,19.96ZM360.07,26.78c-8.27,0-15,6.73-15,15v58.71c0,8.27,6.73,15,15,15s15-6.73,15-15v-58.71c0-8.27-6.73-15-15-15Zm-77.03,81.12l-39.05-40.79c-2.86-2.98-6.71-4.63-10.84-4.63-3.88.01-7.56,1.48-10.37,4.17-5.97,5.72-6.18,15.23-.46,21.21l39.05,40.79c2.86,2.98,6.71,4.63,10.84,4.63,3.88,0,7.57-1.48,10.37-4.17,5.98-5.72,6.18-15.23.46-21.21Zm213.55-41.25c-2.8-2.69-6.49-4.17-10.37-4.17-4.13,0-7.98,1.65-10.83,4.63l-39.06,40.79c-5.72,5.98-5.51,15.49.46,21.21,2.81,2.69,6.49,4.17,10.37,4.17,4.13,0,7.98-1.65,10.84-4.63l39.05-40.79c5.72-5.98,5.52-15.49-.46-21.21Z"/></svg>