<svg id="a" xmlns="http://www.w3.org/2000/svg" viewBox="0 0 576 512"><path d="m217.94,297.24c-1.7,5.58-1.89,125.18-.29,132.05,2.49.15,5.19.44,7.9.44,88.81.02,177.62.02,266.43.02,2.76,0,5.51,0,9.12,0,.45,27.41.12,54.22.23,80.88-4.59,1.44-380.86,1.9-389.65.56V1.17C116.09,0,490.22-.49,500.07.63c.15.13.31.25.45.39.13.14.32.3.33.46.17,1.78.44,3.55.44,5.33-.02,28.33-.07,56.65-.15,84.98,0,.55-.37,1.09-.87,2.46-2.5,0-5.23,0-7.96,0-88.61,0-177.22,0-265.83.02-2.94,0-5.87.22-8.61.34-1.55,5.17-1.86,100.63-.36,108,2.71.16,5.61.47,8.52.47,80.43.03,160.86.02,241.29.02,2.97,0,5.93,0,9.54,0,.29,2.45.71,4.34.71,6.23.04,27.33.04,54.66.01,81.99,0,1.73-.3,3.47-.53,5.91H217.94Z"/></svg>