<?xml version="1.0" encoding="UTF-8"?><svg id="a" xmlns="http://www.w3.org/2000/svg" viewBox="0 0 576 512"><defs><style>.b{fill:#1d1d1b;}</style></defs><path class="b" d="m465.62,177.44C465.52,79.59,385.87,0,288,0c-47.36,0-91.95,18.49-125.54,52.06-33.55,33.54-52.04,78.05-52.07,125.33-2.31,101.93,86.76,221.88,139.99,293.56,9.88,13.31,18.41,24.8,25.22,34.58,2.83,4.05,7.46,6.47,12.4,6.47s9.59-2.42,12.41-6.48c6.83-9.81,15.35-21.29,25.22-34.58,1.74-2.34,3.52-4.73,5.33-7.18,3.89-5.25,2.06-12.75-3.81-15.61h0c-4.52-2.2-9.97-.86-12.96,3.18-1.81,2.44-3.58,4.83-5.32,7.17-7.83,10.55-14.83,19.97-20.87,28.41-6.03-8.42-13.03-17.84-20.87-28.4-51.64-69.56-138.08-185.97-135.88-280.76v-.24c.01-41.75,16.33-81.06,45.97-110.69,29.65-29.63,68.99-45.95,110.78-45.95,86.41,0,156.72,70.29,156.75,156.7v.23c1.03,44.67-17.64,94.15-43.07,141.26-2.93,5.43-.49,12.2,5.21,14.55h0c4.93,2.03,10.61.02,13.14-4.67,26.82-49.78,46.67-102.7,45.59-151.5Zm-177.62-109.66c-58.41,0-105.94,47.52-105.94,105.94s47.52,105.94,105.94,105.94,105.94-47.52,105.94-105.94-47.52-105.94-105.94-105.94Zm0,191c-46.9,0-85.07-38.16-85.07-85.07s38.16-85.07,85.07-85.07,85.07,38.16,85.07,85.07-38.16,85.07-85.07,85.07Z"/></svg>