<?xml version="1.0" encoding="UTF-8"?><svg id="a" xmlns="http://www.w3.org/2000/svg" viewBox="0 0 576 512"><path d="m576,221.32v131.53c0,29.88-24.32,54.19-54.22,54.19h-3.56c-17.83,0-32.76,14.31-32.64,32.14.08,12.19-6.88,22.66-18.11,27.31-3.75,1.56-7.61,2.32-11.42,2.32-7.55,0-14.86-2.99-20.54-8.67l-45.78-45.77c-4.72-4.73-11-7.33-17.67-7.33h-123.26c-4.44,0-8.03-3.6-8.03-8.03h0c0-4.44,3.6-8.04,8.03-8.04h123.26c10.96,0,21.29,4.27,29.04,12.03l45.77,45.77c3.94,3.92,9.34,4.94,14.45,2.87,5.13-2.12,8.18-6.71,8.18-12.25,0-26.69,21.73-48.42,48.43-48.42h3.85c21.04,0,38.14-17.11,38.14-38.12v-131.53c0-21.01-17.1-38.12-38.14-38.12h-31.95c-4.27,0-8.01-3.2-8.31-7.45-.17-2.45.76-4.68,2.33-6.27,1.46-1.45,3.46-2.35,5.68-2.35h32.25c29.9,0,54.22,24.31,54.22,54.19Zm-398.77-20.28c0,15.5-12.62,28.12-28.12,28.12s-28.12-12.62-28.12-28.12,12.61-28.13,28.12-28.13,28.12,12.62,28.12,28.13Zm-16.07,0c0-6.64-5.41-12.05-12.05-12.05s-12.04,5.41-12.04,12.05,5.4,12.05,12.04,12.05,12.05-5.41,12.05-12.05Zm89.17,0c0,15.5-12.62,28.12-28.12,28.12s-28.12-12.62-28.12-28.12,12.61-28.13,28.12-28.13,28.12,12.62,28.12,28.13Zm-16.07,0c0-6.64-5.41-12.05-12.05-12.05s-12.04,5.41-12.04,12.05,5.4,12.05,12.04,12.05,12.05-5.41,12.05-12.05Zm89.17,0c0,15.5-12.62,28.12-28.12,28.12s-28.12-12.62-28.12-28.12,12.61-28.13,28.12-28.13,28.12,12.62,28.12,28.13Zm-16.07,0c0-6.64-5.42-12.05-12.05-12.05s-12.04,5.41-12.04,12.05,5.4,12.05,12.04,12.05,12.05-5.41,12.05-12.05Zm16.07,0c0,15.5-12.62,28.12-28.12,28.12s-28.12-12.62-28.12-28.12,12.61-28.13,28.12-28.13,28.12,12.62,28.12,28.13Zm-16.07,0c0-6.64-5.42-12.05-12.05-12.05s-12.04,5.41-12.04,12.05,5.4,12.05,12.04,12.05,12.05-5.41,12.05-12.05Zm-57.03,0c0,15.5-12.62,28.12-28.12,28.12s-28.12-12.62-28.12-28.12,12.61-28.13,28.12-28.13,28.12,12.62,28.12,28.13Zm-16.07,0c0-6.64-5.41-12.05-12.05-12.05s-12.04,5.41-12.04,12.05,5.4,12.05,12.04,12.05,12.05-5.41,12.05-12.05Zm-57.03,0c0,15.5-12.62,28.12-28.12,28.12s-28.12-12.62-28.12-28.12,12.61-28.13,28.12-28.13,28.12,12.62,28.12,28.13Zm-16.07,0c0-6.64-5.41-12.05-12.05-12.05s-12.04,5.41-12.04,12.05,5.4,12.05,12.04,12.05,12.05-5.41,12.05-12.05Zm16.07,0c0,15.5-12.62,28.12-28.12,28.12s-28.12-12.62-28.12-28.12,12.61-28.13,28.12-28.13,28.12,12.62,28.12,28.13Zm-16.07,0c0-6.64-5.41-12.05-12.05-12.05s-12.04,5.41-12.04,12.05,5.4,12.05,12.04,12.05,12.05-5.41,12.05-12.05Zm89.17,0c0,15.5-12.62,28.12-28.12,28.12s-28.12-12.62-28.12-28.12,12.61-28.13,28.12-28.13,28.12,12.62,28.12,28.13Zm-16.07,0c0-6.64-5.41-12.05-12.05-12.05s-12.04,5.41-12.04,12.05,5.4,12.05,12.04,12.05,12.05-5.41,12.05-12.05Zm89.17,0c0,15.5-12.62,28.12-28.12,28.12s-28.12-12.62-28.12-28.12,12.61-28.13,28.12-28.13,28.12,12.62,28.12,28.13Zm-16.07,0c0-6.64-5.42-12.05-12.05-12.05s-12.04,5.41-12.04,12.05,5.4,12.05,12.04,12.05,12.05-5.41,12.05-12.05Zm16.07,0c0,15.5-12.62,28.12-28.12,28.12s-28.12-12.62-28.12-28.12,12.61-28.13,28.12-28.13,28.12,12.62,28.12,28.13Zm-16.07,0c0-6.64-5.42-12.05-12.05-12.05s-12.04,5.41-12.04,12.05,5.4,12.05,12.04,12.05,12.05-5.41,12.05-12.05Zm-57.03,0c0,15.5-12.62,28.12-28.12,28.12s-28.12-12.62-28.12-28.12,12.61-28.13,28.12-28.13,28.12,12.62,28.12,28.13Zm-16.07,0c0-6.64-5.41-12.05-12.05-12.05s-12.04,5.41-12.04,12.05,5.4,12.05,12.04,12.05,12.05-5.41,12.05-12.05Zm-57.03,0c0,15.5-12.62,28.12-28.12,28.12s-28.12-12.62-28.12-28.12,12.61-28.13,28.12-28.13,28.12,12.62,28.12,28.13Zm-16.07,0c0-6.64-5.41-12.05-12.05-12.05s-12.04,5.41-12.04,12.05,5.4,12.05,12.04,12.05,12.05-5.41,12.05-12.05Zm162.27,0c0,15.5-12.62,28.12-28.12,28.12s-28.12-12.62-28.12-28.12,12.61-28.13,28.12-28.13,28.12,12.62,28.12,28.13Zm-16.07,0c0-6.64-5.42-12.05-12.05-12.05s-12.04,5.41-12.04,12.05,5.4,12.05,12.04,12.05,12.05-5.41,12.05-12.05Zm-57.03,0c0,15.5-12.62,28.12-28.12,28.12s-28.12-12.62-28.12-28.12,12.61-28.13,28.12-28.13,28.12,12.62,28.12,28.13Zm-16.07,0c0-6.64-5.41-12.05-12.05-12.05s-12.04,5.41-12.04,12.05,5.4,12.05,12.04,12.05,12.05-5.41,12.05-12.05Zm-57.03,0c0,15.5-12.62,28.12-28.12,28.12s-28.12-12.62-28.12-28.12,12.61-28.13,28.12-28.13,28.12,12.62,28.12,28.13Zm-16.07,0c0-6.64-5.41-12.05-12.05-12.05s-12.04,5.41-12.04,12.05,5.4,12.05,12.04,12.05,12.05-5.41,12.05-12.05ZM383.61,60.31h-254.59c-4.44,0-8.03,3.6-8.03,8.03h0c0,4.44,3.6,8.04,8.03,8.04h254.58c24.71,0,44.74,20.03,44.74,44.74v150.35c0,24.71-20.03,44.74-44.74,44.74h-151.62c-12.15,0-23.81,4.83-32.4,13.42l-12.02,12.02-40.3,40.29c-4.83,4.81-11.47,6.17-17.77,3.54-6.29-2.61-10.06-8.23-10.06-15.06,0-29.9-24.32-54.21-54.21-54.21h-4.43c-24.65,0-44.73-20.07-44.73-44.74v-108.78c0-4.44-3.6-8.03-8.03-8.03h0C3.6,154.66,0,158.26,0,162.69v108.78c0,33.59,27.23,60.82,60.82,60.82h4.68c21.1,0,37.72,17.26,37.86,38.36.09,13.25,7.73,24.62,19.99,29.7,4.13,1.7,8.4,2.54,12.59,2.54,8.34,0,16.42-3.3,22.69-9.58l28.03-28.01,24.3-24.3c5.58-5.58,13.14-8.71,21.03-8.71h151.62c33.54,0,60.82-27.29,60.82-60.82V121.13c0-33.59-27.23-60.82-60.82-60.82Zm-134.01,140.73c0-15.11-12.29-27.4-27.4-27.4s-27.38,12.29-27.38,27.4,12.28,27.4,27.38,27.4,27.4-12.29,27.4-27.4Zm-14.62,0c0,7.05-5.73,12.78-12.78,12.78s-12.76-5.73-12.76-12.78,5.73-12.78,12.76-12.78,12.78,5.73,12.78,12.78Zm-58.48,0c0-15.11-12.29-27.4-27.4-27.4s-27.38,12.29-27.38,27.4,12.28,27.4,27.38,27.4,27.4-12.29,27.4-27.4Zm-14.62,0c0,7.05-5.73,12.78-12.78,12.78s-12.76-5.73-12.76-12.78,5.73-12.78,12.76-12.78,12.78,5.73,12.78,12.78Zm161.55,0c0-15.51-12.62-28.13-28.13-28.13s-28.11,12.62-28.11,28.13,12.61,28.13,28.11,28.13,28.13-12.62,28.13-28.13Zm-16.08,0c0,6.64-5.41,12.05-12.05,12.05s-12.04-5.41-12.04-12.05,5.4-12.05,12.04-12.05,12.05,5.41,12.05,12.05Zm242.93,133.78v-54.55c0-4.44-3.6-8.04-8.04-8.04s-8.04,3.6-8.04,8.04v54.55c0,23.66-8,31.65-31.65,31.65-4.44,0-8.04,3.6-8.04,8.04s3.6,8.04,8.04,8.04c32.57,0,47.73-15.16,47.73-47.73Z"/></svg>