<?xml version="1.0" encoding="UTF-8"?><svg id="a" xmlns="http://www.w3.org/2000/svg" viewBox="0 0 576 512"><path d="m288-.01C146.62-.01,32,114.61,32,256s114.62,256,256,256,256.01-114.61,256.01-256S429.39-.01,288-.01Zm166.88,422.89c-21.68,21.68-46.92,38.7-75.02,50.59-29.08,12.3-59.99,18.53-91.86,18.53s-62.77-6.23-91.85-18.53c-28.11-11.89-53.35-28.91-75.03-50.59s-38.7-46.92-50.58-75.02c-12.3-29.09-18.54-59.99-18.54-91.86s6.24-62.77,18.54-91.86c11.88-28.1,28.9-53.34,50.58-75.02s46.92-38.7,75.03-50.59c29.08-12.3,59.98-18.54,91.85-18.54s62.78,6.24,91.86,18.54c28.1,11.89,53.34,28.91,75.02,50.59,21.68,21.68,38.7,46.92,50.59,75.02,12.3,29.09,18.54,59.99,18.54,91.86s-6.24,62.77-18.54,91.86c-11.89,28.1-28.91,53.34-50.59,75.02Zm-39.72-166.88c0,8.27-6.73,15-15,15h-97.16v97.16c0,8.27-6.73,15-15,15s-15-6.73-15-15v-97.16h-97.16c-8.27,0-15-6.73-15-15s6.73-15,15-15h97.16v-97.16c0-8.27,6.73-15,15-15s15,6.73,15,15v97.16h97.16c8.27,0,15,6.73,15,15Z"/></svg>