<?xml version="1.0" encoding="UTF-8"?><svg id="a" xmlns="http://www.w3.org/2000/svg" viewBox="0 0 576 512"><path d="m248,144c0,13.23-10.77,24-24,24s-24-10.77-24-24,10.77-24,24-24,24,10.77,24,24Zm222.72,283.41c-2.5-5.89-8.28-9.7-14.72-9.7H99.16c-32.62,0-59.16-26.54-59.16-59.17V120c0-8.82-7.18-16-16-16-5.37,0-10.9,2.56-16,7.42v247.12c0,50.27,40.89,91.17,91.16,91.17h365.42c6.86-7.21,9.1-15.33,6.14-22.3Zm86.11-387.41H99.31c-10.59,0-19.17,8.58-19.17,19.17v272.58c0,24.44,19.81,44.25,44.25,44.25h57.27c3.89,0,7.55-1.89,9.79-5.06l28.06-39.57,28.37-40,.04-.05.03-.04,10.38-14.19,5.03-6.87,6.54,5.44c7.16,5.94,16.19,9.21,25.43,9.21,13.45,0,25.88-6.72,33.23-17.97l32.74-50.03,6.69-10.24,6.7,10.24,48.82,74.68,21.56,31.42c2.16,3.15,5.72,5.03,9.54,5.03,7.16,0,11.6-6.03,11.6-11.62,0-2.23-.64-4.34-1.91-6.28l-9.48-14.51-73.42-112.31c-2.95-4.57-7.96-7.28-13.4-7.28s-10.45,2.71-13.38,7.25l-46.14,70.51c-2.91,4.45-7.83,7.11-13.15,7.11s-9.68-2.34-12.68-6.41l-5.8-7.93c-2.98-4.1-7.81-6.53-12.95-6.53s-9.86,2.39-12.96,6.55l-31.14,42.58-35.43,48.43c-2.98,4.04-7.72,6.44-12.69,6.44h-43.82c-8.68,0-15.72-7.04-15.72-15.72V87.72c0-8.68,7.04-15.72,15.72-15.72h400.41c8.69,0,15.73,7.04,15.73,15.73v272.27c0,9.09,7.62,16.44,16.81,15.98,8.59-.43,15.19-7.84,15.19-16.45V59.17c0-10.59-8.58-19.17-19.17-19.17Z"/></svg>