<svg id="a" xmlns="http://www.w3.org/2000/svg" viewBox="0 0 576 512"><path d="m531.96,347.11l-96-40c-4.99-2.08-10.22-3.08-15.39-3.08-11.74,0-23.21,5.17-30.91,14.68l-40.4,49.3c-70.4-33.3-127.4-90.3-160.7-160.7l49.3-40.3c13.7-11.2,18.4-30,11.6-46.3l-40-96v-.1C203.15,9.39,188.41-.01,172.62-.01c-3.5,0-7.04.46-10.56,1.42l-88,24c-17.4,4.8-29.5,20.6-29.5,38.6,0,247.4,200.6,448,448,448,18,0,33.8-12.1,38.6-29.5l24-88c5.3-19.4-4.6-39.7-23.2-47.4Zm-39.4,139.9c-57.11,0-112.5-11.18-164.63-33.23-50.37-21.31-95.61-51.81-134.47-90.67-38.86-38.86-69.36-84.1-90.67-134.47-22.05-52.13-33.23-107.52-33.23-164.63,0-6.72,4.57-12.68,11.13-14.49l87.96-23.99c1.3-.36,2.64-.54,3.97-.54,5.66,0,10.76,3.17,13.28,8.17l.48,1.17,40.01,96.01c2.56,6.14.81,13.1-4.35,17.32l-49.3,40.3-15.14,12.37,8.36,17.67c35.74,75.57,97.04,136.87,172.61,172.61l17.65,8.35,12.37-15.1,40.4-49.3.05-.06.04-.05c2.79-3.45,6.98-5.42,11.49-5.42,1.98,0,3.92.39,5.77,1.16l96,40h.03s.03.02.03.02c6.9,2.86,10.62,10.47,8.64,17.72l-23.99,87.95c-1.81,6.55-7.77,11.13-14.49,11.13Z"/></svg>