<?xml version="1.0" encoding="UTF-8"?><svg id="a" xmlns="http://www.w3.org/2000/svg" viewBox="0 0 576 512"><path d="m362.35,272.42l-2.62,2.38,2.62-2.37,2.91-2.62v-.04l-2.91,2.65Zm176.09-200.14H37.57c-7.93,0-15.36,3.03-20.94,8.54-5.56,5.51-8.63,12.87-8.63,20.72v308.62c0,16.3,13.26,29.56,29.56,29.56h501.25c6.63-.08,12.1-3.83,14.62-10.02,1.98-4.88,2.09-12.1-3.56-17.75l-162.38-162.38,6.12-5.56,22.7-20.64,16.38-14.84,102.71-93.04,13.56-13.94v19.69s0,141.37,0,141.37c0,5.25,4.27,9.52,9.51,9.52s9.52-4.27,9.52-9.52V101.54c0-16.13-13.26-29.26-29.56-29.26ZM26.97,407.57V102.09l12.7,12.59.7.63,90.13,81.73.03.03.03.02.23.22,49.62,44.95,6.23,5.64-5.94,5.95L40.63,393.92l-13.66,13.65Zm491.33-.5v.02s.05.04.05.04l13.51,13.63H40.03l13.81-13.68.03-.03,141.27-140.95,5.66-5.65,5.53,5.5,31.58,28.45c.61.54,1.32,1.16,2.05,1.76l.09.07.08.08c.22.18.43.35.64.53l.05.03.59.47.71.56c.08.06.16.11.24.17l.12.09.13.09c.58.45,1.23.92,2.04,1.49.84.58,1.71,1.16,2.58,1.71l.22.14.87.54.05.02.04.03c.74.45,1.44.86,2.11,1.24l.04.02.04.02c.45.26.92.51,1.38.76.34.18.68.35,1.02.53.64.33,1.3.65,2.12,1.04.54.26.99.47,1.42.65l.11.04.12.06c.35.15.69.3,1.04.45l.56.23.06.03c.42.18.83.34,1.24.5.97.39,2.02.77,3.19,1.18l.32.11c.44.14.87.28,1.3.42.56.18,1.11.34,1.67.51,7.07,2.06,14.43,3.11,21.83,3.11s14.53-1.01,21.5-3.01l.32-.09c.58-.18,1.13-.34,1.68-.52.52-.16,1.08-.35,1.63-.54.97-.33,1.83-.64,2.63-.95l.05-.02.05-.02c.29-.11.56-.22.84-.33l.04-.02.04-.02c.43-.17.85-.34,1.28-.52l.03-.02h.03c.46-.2.91-.4,1.36-.6l.31-.14c.3-.13.61-.27.91-.42,6.39-3.02,12.21-6.87,17.34-11.45l17.92-16.18.97-.88,1.6-1.44.8-.73.19-.17.23-.21,2.62-2.38,2.91-2.65h.01l8.24-7.49,3.08,3.08h.03s2.36,2.39,2.36,2.39l139.32,139.32Zm.04-301.82l-60.81,55.15-.32.29-41.79,37.93-46.64,42.33-.43.42-.15.1-1.33,1.21-20.05,18.06-21.65,19.51c-9.77,8.86-22.98,13.75-37.17,13.75-.47,0-.94-.01-1.41-.02-1.34-.02-2.73-.11-4.23-.25-1.21-.11-2.48-.27-3.77-.48-.72-.11-1.33-.22-1.91-.34-2.12-.41-4.25-.95-6.35-1.61h-.03s-.03-.02-.03-.02l-.28-.09c-.3-.09-.6-.19-.91-.29-.88-.31-1.62-.58-2.3-.85-.4-.15-.79-.31-1.18-.48-.47-.19-.98-.41-1.48-.64-1.14-.51-2.25-1.06-3.4-1.69-.51-.27-1.09-.58-1.7-.96-.8-.46-1.55-.93-2.23-1.4-.46-.3-.97-.64-1.51-1.04-1.56-1.1-3.08-2.31-4.5-3.61l-23.91-21.76-3.3-3-15.09-13.72-1.72-1.56c-.15-.1-.36-.23-.62-.39l-1.28-.78-.28-.37-.67-.45-.3-.59-31.22-28.26-2.78-2.51L57.29,105.25l-15.4-13.93h1.5l-.04-.04h488.93l-.04.04h1.42l-15.32,13.93Z"/></svg>