<svg id="a" xmlns="http://www.w3.org/2000/svg" viewBox="0 0 576 512"><path d="m239.17,47.25h0c1.11,1.18,1.63,2.78,1.46,4.39-.17,1.53-.42,3.33-.78,5.43-.82,4.77-1.87,9.45-3.14,13.92-1.27,4.49-2.61,8.51-3.98,11.98-.44,1.1-.76,1.84-.98,2.29h0c-8.58,9.64-8.14,24.3,1,33.41l1.12,1.12,139.05,138.52h0c9.33,9.3,24.15,10.14,34.48,1.97h0c6.25-4.94,12.86-8.54,20.21-10.99,7.49-2.49,15.45-3.76,23.67-3.76,11.81,0,23.21,2.37,34.85,7.23l.12.05c5.9,2.47,7.41,10.13,2.9,14.66l-86.84,87.24-7.54,7.58-.35-.35-18.38,18.51-87.2,87.8c-4.48,4.51-12.11,3-14.53-2.88l-.05-.12c-4.91-11.95-7.29-23.53-7.29-35.4,0-8.22,1.26-16.18,3.75-23.66,2.46-7.36,6.05-13.98,10.99-20.22h0c8.19-10.35,7.33-25.19-2-34.52h0s-139.05-139.05-139.05-139.05l-2.44-2.44c-9.33-9.33-24.6-8.81-33.28,1.14h0c-.26.11-.57.24-.92.38-3.49,1.4-7.6,2.74-12.25,3.99-4.8,1.3-9.74,2.38-14.71,3.22-2.43.41-4.47.68-6.16.85-.48.05-.95-.13-1.29-.46h0c-.63-.63-.63-1.65,0-2.28L239.17,47.25m246.24,390.26l-64.67-64.45,86.77-87.17c17.44-17.52,11.86-47.29-10.91-56.92-.15-.06-.29-.12-.44-.19-14.74-6.16-29.69-9.24-44.88-9.24-11.07,0-21.7,1.7-31.88,5.09-10.18,3.4-19.56,8.49-28.13,15.27l-130.92-130.41c-4.42-4.4-5.79-11.02-3.5-16.82l.05-.13c1.7-4.29,3.31-9.11,4.82-14.47,1.52-5.36,2.77-10.89,3.75-16.61.98-5.71,1.47-10.72,1.47-15,0-2.5-.18-4.6-.54-6.3-.36-1.69-.98-2.99-1.88-3.88l-12.32-13.13c-3.75-3.39-8.12-5.09-13.13-5.09h0c-5,0-9.2,1.7-12.59,5.09L44.57,205.07c-3.39,3.93-5.09,8.22-5.09,12.86s1.7,9.11,5.09,12.86l13.13,13.13c1.25,1.25,4.11,1.88,8.57,1.88s9.33-.49,15.14-1.47c5.81-.98,11.52-2.23,17.15-3.75,5.63-1.52,10.67-3.17,15.14-4.96l.13-.05c5.72-2.29,12.26-.95,16.62,3.41l130.88,130.88c-6.79,8.57-11.88,17.95-15.27,28.13-3.39,10.18-5.09,20.81-5.09,31.88,0,15.18,3.08,30.27,9.24,45.28.06.15.12.3.19.45,9.52,22.91,39.47,28.53,56.96,10.93l87.14-87.74,64.85,64.85c7.13,7.13,18.66,7.22,25.9.2h0c7.41-7.18,7.49-19.04.18-26.32Z"/></svg>